<svg width="24" height="24" viewBox="0 0 24 24" fill="none" xmlns="http://www.w3.org/2000/svg">
<g clip-path="url(#clip0_15_14199)">
<rect width="24" height="24" rx="12" fill="black"/>
<path d="M17.9778 14.6781L15.8392 11.8065C15.6069 11.4944 15.2629 11.3075 14.8966 11.2663C14.8132 11.2567 14.7387 11.2089 14.697 11.1368C14.6546 11.0646 14.6501 10.9771 14.6836 10.9005C14.8303 10.5664 14.8392 10.1786 14.6814 9.82386L13.2346 6.55777C13.0201 6.07278 12.5354 5.76001 12 5.76001C11.4646 5.76001 10.9799 6.07352 10.7654 6.55777L9.31864 9.82386C9.16153 10.1786 9.16972 10.5664 9.31641 10.9005C9.34992 10.9771 9.3447 11.0646 9.30301 11.1368C9.26056 11.2089 9.18684 11.2567 9.10345 11.2663C8.7371 11.3075 8.39309 11.4944 8.16077 11.8065L6.02223 14.6781C5.70503 15.1042 5.67301 15.6753 5.94032 16.1338C6.20839 16.5915 6.72515 16.8499 7.2568 16.7917L10.8421 16.3973C11.2316 16.3546 11.5674 16.1537 11.7863 15.8608C11.8362 15.7938 11.9159 15.754 12 15.754C12.0841 15.754 12.1631 15.7938 12.2137 15.8608C12.4326 16.1537 12.7684 16.3546 13.1579 16.3973L16.7432 16.7917C17.2749 16.8506 17.7916 16.5923 18.0597 16.1338C18.327 15.6753 18.295 15.1042 17.9778 14.6781ZM10.2539 10.2338L11.7029 6.964C11.755 6.84699 11.8719 6.77119 12.0007 6.77119C12.1296 6.77119 12.2465 6.84699 12.2986 6.964L13.7476 10.2338C13.793 10.3368 13.7834 10.456 13.7208 10.5502C13.6583 10.6444 13.5525 10.7011 13.4379 10.7011H10.5629C10.449 10.7011 10.3425 10.6444 10.2799 10.5502C10.2174 10.456 10.2077 10.3368 10.2531 10.2338H10.2539ZM10.9977 15.2117C10.9464 15.3125 10.8466 15.3802 10.7334 15.3927L7.14437 15.7872C7.01629 15.8011 6.8912 15.7393 6.82642 15.6289C6.76163 15.5185 6.76982 15.3809 6.84652 15.2779L8.98729 12.4033C9.05505 12.3128 9.16376 12.2613 9.27769 12.2679C9.39162 12.2738 9.49437 12.3363 9.55171 12.4342L9.55394 12.4379L10.9873 14.8915L10.9896 14.8952C11.0469 14.9931 11.0499 15.1123 10.9985 15.2124L10.9977 15.2117ZM12.2949 14.1019C12.2338 14.2056 12.1221 14.2704 12 14.2704C11.8786 14.2704 11.7662 14.2064 11.7051 14.1026L10.6038 12.2179C10.5428 12.1141 10.5428 11.9853 10.6038 11.8815C10.6649 11.7778 10.7766 11.713 10.8987 11.713H13.1005C13.2219 11.713 13.3344 11.7763 13.3954 11.8808C13.4565 11.9853 13.4565 12.1134 13.3954 12.2171L12.2949 14.1019ZM17.1743 15.6289C17.1096 15.7393 16.9852 15.8019 16.8564 15.7879L13.2673 15.3934C13.1542 15.3809 13.0544 15.3132 13.003 15.2124C12.9516 15.1116 12.9546 14.9923 13.0119 14.8952L13.0142 14.8915L14.4476 12.4379L14.4498 12.4342C14.5071 12.3363 14.6099 12.2738 14.7238 12.2679C14.8377 12.262 14.9464 12.3128 15.0142 12.4033L17.155 15.2779C17.2317 15.3809 17.2391 15.5185 17.1751 15.6289H17.1743Z" fill="#E81899"/>
</g>
<defs>
<clipPath id="clip0_15_14199">
<rect width="24" height="24" fill="white"/>
</clipPath>
</defs>
</svg>
