<svg width="24" height="24" viewBox="0 0 24 24" fill="none" xmlns="http://www.w3.org/2000/svg">
<g clip-path="url(#clip0_1_25573)">
<path d="M19.4378 5.00291L18.7833 5.65746C22.0206 9.19769 22.0206 14.6234 18.7833 18.1636L19.4378 18.8182C23.0395 14.9115 23.0395 8.89436 19.4378 4.98764V5.00291Z" fill="#5A5564"/>
<path d="M5.67273 5.05962C9.21296 1.82231 14.6387 1.82231 18.1789 5.05962L18.8335 4.40508C14.9267 0.80337 8.90964 0.80337 5.00291 4.40508L5.67273 5.05962Z" fill="#5A5564"/>
<path d="M5.05964 18.1702C1.82632 14.6309 1.82632 9.2098 5.05964 5.67054L4.40509 5.01599C0.803385 8.92271 0.803385 14.9398 4.40509 18.8465L5.05964 18.1702Z" fill="#5A5564"/>
<path d="M18.1702 18.7745C14.63 22.0118 9.20423 22.0118 5.66401 18.7745L5.00946 19.4291C8.91618 23.0308 14.9333 23.0308 18.84 19.4291L18.1702 18.7745Z" fill="#5A5564"/>
<path fill-rule="evenodd" clip-rule="evenodd" d="M16.0516 9.73526C15.9207 8.36945 14.7425 7.91126 13.2524 7.77163V5.8909H12.1004V7.73672H11.1796V5.8909H10.0364V7.78472H7.69963V9.01745C7.69963 9.01745 8.55054 9.00217 8.53745 9.01745C8.85635 8.98236 9.14574 9.20616 9.19199 9.52363V14.7076C9.18537 14.8165 9.13501 14.918 9.05236 14.9891C8.97125 15.0616 8.86408 15.0978 8.75563 15.0894C8.7709 15.1025 7.91781 15.0894 7.91781 15.0894L7.69963 16.4662H10.0145V18.3905H11.1665V16.4945H12.0873V18.3818H13.2414V16.4793C15.1876 16.3614 16.5447 15.8814 16.7149 14.0596C16.8524 12.5934 16.1629 11.9389 15.0611 11.6749C15.7309 11.3454 16.1454 10.7345 16.0516 9.73526ZM14.4371 13.8327C14.4371 15.1467 12.3703 15.1165 11.4271 15.1027H11.4271C11.3429 15.1015 11.2676 15.1004 11.2036 15.1004V12.5607C11.2836 12.5609 11.3811 12.5588 11.4917 12.5563C12.4613 12.5349 14.4371 12.4912 14.4371 13.8327ZM11.402 11.4068C12.1923 11.4209 13.9025 11.4512 13.9025 10.2545C13.9025 9.02754 12.2456 9.07064 11.4399 9.0916C11.3501 9.09393 11.271 9.09599 11.2058 9.09599V11.4044C11.2616 11.4044 11.3277 11.4055 11.402 11.4068Z" fill="#F09242"/>
<path fill-rule="evenodd" clip-rule="evenodd" d="M2.2678e-08 11.9185C-0.000401641 18.5008 5.33483 23.8373 11.9171 23.8385C15.079 23.8391 18.1116 22.5833 20.3475 20.3475C22.5833 18.1116 23.8391 15.079 23.8385 11.9171C23.8373 5.33483 18.5008 -0.000401641 11.9185 2.2678e-08C5.33628 0.000401686 0.000401686 5.33628 2.2678e-08 11.9185ZM0.942547 11.9171C0.940138 5.8529 5.8529 0.934273 11.9171 0.929454C14.8323 0.927138 17.6288 2.08388 19.6906 4.14484C21.7524 6.20579 22.9102 9.00188 22.9091 11.9171C22.9067 17.9813 17.99 22.896 11.9258 22.896C5.86163 22.896 0.944956 17.9813 0.942547 11.9171Z" fill="#282138"/>
</g>
<defs>
<clipPath id="clip0_1_25573">
<rect width="24" height="24" fill="white"/>
</clipPath>
</defs>
</svg>
