<svg width="24" height="24" viewBox="0 0 24 24" fill="none" xmlns="http://www.w3.org/2000/svg">
<g clip-path="url(#clip0_1_25559)">
<circle cx="12" cy="12" r="12" fill="white"/>
<path d="M11.7925 2.83334L11.6696 3.25101V15.3707L11.7925 15.4934L17.4183 12.168L11.7925 2.83334Z" fill="#3B3735"/>
<path d="M11.7925 2.83334L6.16666 12.168L11.7925 15.4934V9.61087V2.83334Z" fill="#959190"/>
<path d="M11.7925 16.5586L11.7232 16.643V20.9603L11.7925 21.1626L17.4216 13.2348L11.7925 16.5586Z" fill="#3B3735"/>
<path d="M11.7925 21.1625V16.5585L6.16666 13.2348L11.7925 21.1625Z" fill="#959190"/>
<path d="M11.7924 15.4934L17.4182 12.168L11.7924 9.6109V15.4934Z" fill="#1F1D19"/>
<path d="M6.1667 12.168L11.7924 15.4934V9.6109L6.1667 12.168Z" fill="#403C3A"/>
</g>
<rect x="0.5" y="0.5" width="23" height="23" rx="11.5" stroke="black"/>
<defs>
<clipPath id="clip0_1_25559">
<rect width="24" height="24" rx="12" fill="white"/>
</clipPath>
</defs>
</svg>
