<svg width="23" height="21" viewBox="0 0 23 21" fill="none" xmlns="http://www.w3.org/2000/svg">
<path d="M0.5 10.5555V20.6555H3C5.3 20.6555 5.5 20.3555 5.6 15.3555V10.1555L7.6 15.3555C9.1 19.1555 10.2 20.6555 11.5 20.6555C12.8 20.6555 13.9 19.1555 15.4 15.3555L17.4 10.1555V15.3555C17.5 20.3555 17.7 20.6555 20 20.6555H22.5V10.5555V0.555517L19.3 0.855516C16.4 1.15552 15.8 1.75552 14 6.35552C12.9 9.25552 11.8 11.6555 11.5 11.6555C11.2 11.6555 10.1 9.25552 9 6.35552C7.2 1.75552 6.6 1.15552 3.7 0.855516L0.5 0.555517V10.5555Z" fill="white"/>
</svg>
