<svg width="100" height="29" viewBox="0 0 100 29" fill="none" xmlns="http://www.w3.org/2000/svg">
<path d="M56.3744 22.5927C55.875 23.3035 55.2122 23.8317 54.3863 24.1775C53.5603 24.504 52.6382 24.6673 51.6201 24.6673C50.8134 24.6673 50.0738 24.5713 49.4015 24.3792C48.7484 24.1871 48.1721 23.8989 47.6727 23.5148C47.1732 23.1114 46.7795 22.6215 46.4913 22.0453C46.2032 21.4498 46.0591 20.7775 46.0591 20.0283C46.0591 19.2023 46.2224 18.5012 46.5489 17.9249C46.8755 17.3294 47.3173 16.8492 47.8744 16.4842C48.4506 16.1193 49.123 15.8503 49.8913 15.6775C50.6597 15.4854 51.4665 15.3893 52.3117 15.3893H56.2015C56.2015 14.2752 55.9518 13.4108 55.4524 12.7961C54.9529 12.1814 54.0789 11.8645 52.8303 11.8452C52.1004 11.8452 51.4665 11.9701 50.9286 12.2198C50.41 12.4695 50.0642 12.8825 49.8913 13.4588H46.5201C46.6354 12.652 46.8947 11.9701 47.2981 11.413C47.7207 10.856 48.2201 10.395 48.7964 10.03C49.3919 9.66501 50.045 9.40569 50.7557 9.25202C51.4857 9.09834 52.2156 9.02151 52.9456 9.02151C53.8868 9.02151 54.7608 9.14637 55.5676 9.39608C56.3744 9.6458 57.0755 10.0684 57.671 10.6639C58.3433 11.3554 58.7947 12.1814 59.0252 13.1419C59.2558 14.1023 59.371 15.1492 59.371 16.2825V24.4656H56.5185L56.3744 22.5927ZM56.2015 17.7232H53.032C52.4749 17.7232 51.9179 17.7712 51.3608 17.8673C50.8038 17.9441 50.3235 18.1458 49.9201 18.4724C49.536 18.7797 49.3439 19.2311 49.3439 19.8266C49.3439 20.5566 49.6032 21.1136 50.1218 21.4978C50.6597 21.8628 51.3128 22.0453 52.0812 22.0453C52.6766 22.0453 53.2241 21.9684 53.7235 21.8148C54.2422 21.6611 54.684 21.4114 55.049 21.0656C55.4139 20.7006 55.6925 20.2492 55.8846 19.7114C56.0959 19.1543 56.2015 18.4916 56.2015 17.7232Z" fill="#0B101B"/>
<path d="M64.7709 2.97065C65.3663 2.97065 65.8562 3.15313 66.2403 3.51811C66.6437 3.88308 66.8454 4.38252 66.8454 5.01642C66.8454 5.63111 66.6437 6.12094 66.2403 6.48591C65.8562 6.85088 65.3663 7.03337 64.7709 7.03337C64.137 7.03337 63.6279 6.85088 63.2437 6.48591C62.8596 6.12094 62.6675 5.63111 62.6675 5.01642C62.6675 4.38252 62.8596 3.88308 63.2437 3.51811C63.6279 3.15313 64.137 2.97065 64.7709 2.97065ZM63.0997 24.4656V9.28083H66.3844V24.4656H63.0997Z" fill="#0B101B"/>
<path d="M92.4907 9.02151C93.7008 9.02151 94.767 9.2136 95.689 9.59778C96.611 9.98196 97.389 10.5198 98.0229 11.2113C98.676 11.8837 99.1658 12.7 99.4924 13.6605C99.8189 14.621 99.9822 15.6871 99.9822 16.8588C99.9822 18.0498 99.8189 19.1255 99.4924 20.0859C99.185 21.0272 98.7144 21.8436 98.0805 22.5351C97.4466 23.2266 96.659 23.7549 95.7178 24.1198C94.7958 24.4848 93.7201 24.6673 92.4907 24.6673C91.2805 24.6673 90.2144 24.4848 89.2924 24.1198C88.3703 23.7357 87.5924 23.2074 86.9585 22.5351C86.3438 21.8436 85.8732 21.0176 85.5466 20.0571C85.2393 19.0967 85.0856 18.0306 85.0856 16.8588C85.0856 15.6871 85.2393 14.621 85.5466 13.6605C85.8732 12.7 86.3534 11.8837 86.9873 11.2113C87.6212 10.5198 88.3991 9.98196 89.3212 9.59778C90.2432 9.2136 91.2997 9.02151 92.4907 9.02151ZM92.4907 21.8148C93.2398 21.8148 93.8737 21.6899 94.3924 21.4402C94.9302 21.1713 95.3624 20.8159 95.689 20.3741C96.0348 19.9323 96.2845 19.4136 96.4381 18.8181C96.611 18.2227 96.6975 17.5792 96.6975 16.8876C96.6975 16.1961 96.611 15.5526 96.4381 14.9571C96.2845 14.3424 96.0348 13.8142 95.689 13.3724C95.3624 12.9306 94.9302 12.5848 94.3924 12.3351C93.8737 12.0854 93.2398 11.9605 92.4907 11.9605C91.7607 11.9605 91.1364 12.0854 90.6178 12.3351C90.0991 12.5848 89.6669 12.9306 89.3212 13.3724C88.9754 13.8142 88.7161 14.3424 88.5432 14.9571C88.3895 15.5526 88.3127 16.1961 88.3127 16.8876C88.3127 17.5792 88.3895 18.2227 88.5432 18.8181C88.7161 19.4136 88.9658 19.9323 89.2924 20.3741C89.6381 20.8159 90.0703 21.1713 90.589 21.4402C91.1268 21.6899 91.7607 21.8148 92.4907 21.8148Z" fill="#0B101B"/>
<path d="M75.8044 15.4758H73.4417V4.69686H70.1857V24.4656H73.4417V18.3283H76.0061L80.0112 24.4656H83.8146L78.6281 16.513L83.4112 9.28083H79.7231L75.8044 15.4758Z" fill="#0B101B"/>
<path d="M43.838 9.23768H39.9486V4.69686H38.9436L34.2169 11.1188V11.9493H36.6441V19.4649C36.6441 21.239 37.0438 22.516 37.8431 23.2958C38.6619 24.0757 40.0169 24.4656 41.9079 24.4656H43.721V21.5997H42.2004C41.3231 21.5997 40.7285 21.3852 40.4165 20.9563C40.1046 20.5274 39.9486 19.8743 39.9486 18.997V11.9493H43.838V9.23768Z" fill="#0B101B"/>
<path d="M29.9104 23.0314L24.6751 15.9185C24.1063 15.1455 23.2641 14.6825 22.3673 14.5804C22.1631 14.5568 21.9808 14.4383 21.8787 14.2596C21.7748 14.081 21.7639 13.8641 21.8459 13.6745C22.205 12.8469 22.2269 11.8862 21.8404 11.0076L18.2986 2.91755C17.7736 1.71626 16.5869 0.941528 15.2762 0.941528C13.9655 0.941528 12.7788 1.71808 12.2538 2.91755L8.71193 11.0076C8.3273 11.8862 8.34736 12.8469 8.70647 13.6745C8.7885 13.8641 8.77574 14.081 8.67366 14.2596C8.56975 14.4383 8.38928 14.5568 8.18511 14.5804C7.28825 14.6825 6.44608 15.1455 5.87733 15.9185L0.641968 23.0314C-0.134587 24.0869 -0.212972 25.5014 0.441448 26.6371C1.09769 27.7709 2.36278 28.4108 3.66433 28.2668L12.4416 27.2897C13.395 27.184 14.2171 26.6863 14.753 25.9608C14.8752 25.7949 15.0702 25.6965 15.2762 25.6965C15.4822 25.6965 15.6754 25.7949 15.7994 25.9608C16.3353 26.6863 17.1574 27.184 18.1108 27.2897L26.888 28.2668C28.1896 28.4126 29.4547 27.7728 30.1109 26.6371C30.7654 25.5014 30.687 24.0869 29.9104 23.0314ZM11.0015 12.0229L14.5489 3.92379C14.6765 3.63395 14.9626 3.44619 15.278 3.44619C15.5934 3.44619 15.8796 3.63395 16.0072 3.92379L19.5545 12.0229C19.6657 12.2781 19.642 12.5734 19.4889 12.8068C19.3358 13.0401 19.0769 13.1805 18.7962 13.1805H11.758C11.4791 13.1805 11.2184 13.0401 11.0653 12.8068C10.9122 12.5734 10.8885 12.2781 10.9997 12.0229H11.0015ZM12.8226 24.353C12.6968 24.6027 12.4525 24.7705 12.1754 24.8014L3.38907 25.7785C3.07553 25.8131 2.76929 25.66 2.61069 25.3866C2.4521 25.1132 2.47215 24.7723 2.65991 24.5171L7.90074 17.3968C8.06663 17.1726 8.33277 17.045 8.61168 17.0614C8.89058 17.076 9.14214 17.2309 9.2825 17.4734L9.28797 17.4825L12.7971 23.56L12.8025 23.5692C12.9429 23.8116 12.9502 24.1069 12.8244 24.3548L12.8226 24.353ZM15.9981 21.6041C15.8486 21.8611 15.5751 22.0215 15.2762 22.0215C14.9791 22.0215 14.7038 21.8629 14.5543 21.6059L11.8583 16.9375C11.7088 16.6804 11.7088 16.3614 11.8583 16.1044C12.0077 15.8474 12.2812 15.687 12.5801 15.687H17.9704C18.2676 15.687 18.5428 15.8437 18.6923 16.1026C18.8418 16.3614 18.8418 16.6786 18.6923 16.9356L15.9981 21.6041ZM27.9435 25.3866C27.7849 25.66 27.4805 25.815 27.1651 25.7803L18.3788 24.8033C18.1017 24.7723 17.8574 24.6046 17.7316 24.3548C17.6059 24.1051 17.6131 23.8098 17.7535 23.5692L17.759 23.56L21.2681 17.4825L21.2735 17.4734C21.4139 17.2309 21.6654 17.076 21.9444 17.0614C22.2233 17.0468 22.4894 17.1726 22.6553 17.3968L27.8961 24.5171C28.0839 24.7723 28.1021 25.1132 27.9453 25.3866H27.9435Z" fill="#E81899"/>
</svg>
